<svg xmlns="http://www.w3.org/2000/svg" width="21.582" height="21.948" viewBox="0 0 21.582 21.948">
  <g id="key" opacity="0.7">
    <path id="Path_2" data-name="Path 2" d="M41.829,12.658a1.829,1.829,0,1,1,1.829-1.829A1.831,1.831,0,0,1,41.829,12.658Zm0-2.926a1.1,1.1,0,1,0,1.1,1.1A1.1,1.1,0,0,0,41.829,9.732Z" transform="translate(-25.368 -5.708)" fill="var(--secondaryColor)"/>
    <path id="Path_3" data-name="Path 3" d="M3.658,21.948H.366A.366.366,0,0,1,0,21.582V17.558A.364.364,0,0,1,.107,17.3L7.445,9.962a7.316,7.316,0,1,1,4.176,4.175L9.769,15.988a.365.365,0,0,1-.259.107H8.047v1.1a.366.366,0,0,1-.366.366H6.95v.732a.366.366,0,0,1-.366.366H5.121v1.829a.364.364,0,0,1-.107.259l-1.1,1.1A.365.365,0,0,1,3.658,21.948ZM.732,21.216H3.507l.883-.883V18.29a.366.366,0,0,1,.366-.366H6.219v-.732a.366.366,0,0,1,.366-.366h.732v-1.1a.366.366,0,0,1,.366-.366H9.359l1.916-1.915a.366.366,0,0,1,.4-.078A6.582,6.582,0,1,0,8.211,9.9a.366.366,0,0,1-.078.4l-7.4,7.4Z" fill="var(--secondaryColor)"/>
    <path id="Path_4" data-name="Path 4" d="M7.366,39.121a.366.366,0,0,1-.259-.624l4.39-4.39a.366.366,0,1,1,.517.517l-4.39,4.39A.365.365,0,0,1,7.366,39.121Z" transform="translate(-4.439 -21.563)" fill="var(--secondaryColor)"/>
    <path id="Path_5" data-name="Path 5" d="M38.366,25.219a.366.366,0,1,1,0-.732,5.127,5.127,0,0,0,5.121-5.121.366.366,0,1,1,.732,0A5.859,5.859,0,0,1,38.366,25.219Z" transform="translate(-24.1 -12.05)" fill="var(--secondaryColor)"/>
  </g>
</svg>
