<svg xmlns="http://www.w3.org/2000/svg" width="16" height="20" viewBox="0 0 16 20">
  <g id="user_1_" data-name="user (1)" opacity="0.65">
    <path id="Path_6" data-name="Path 6" d="M91.457,9.767a4.091,4.091,0,0,0,3.129-1.431,4.983,4.983,0,0,0,1.3-3.453,4.983,4.983,0,0,0-1.3-3.453,4.138,4.138,0,0,0-6.258,0,4.982,4.982,0,0,0-1.3,3.453,4.982,4.982,0,0,0,1.3,3.453A4.092,4.092,0,0,0,91.457,9.767Zm-2.368-7.5a3.131,3.131,0,0,1,4.735,0,3.722,3.722,0,0,1,.981,2.612A3.722,3.722,0,0,1,93.825,7.5a3.13,3.13,0,0,1-4.735,0,3.721,3.721,0,0,1-.981-2.613,3.721,3.721,0,0,1,.981-2.612Zm0,0" transform="translate(-83.585 0)" fill="var(--secondaryColor)"/>
    <path id="Path_7" data-name="Path 7" d="M15.961,253.113a12.719,12.719,0,0,0-.155-1.281,10.575,10.575,0,0,0-.3-1.288,6.554,6.554,0,0,0-.5-1.2,4.508,4.508,0,0,0-.755-1.041,3.31,3.31,0,0,0-1.085-.721,3.57,3.57,0,0,0-1.385-.265,1.364,1.364,0,0,0-.751.337c-.225.155-.488.335-.782.533a4.365,4.365,0,0,1-1.012.471,3.728,3.728,0,0,1-2.475,0,4.352,4.352,0,0,1-1.011-.471c-.291-.2-.554-.376-.783-.533a1.363,1.363,0,0,0-.75-.337,3.566,3.566,0,0,0-1.385.265,3.308,3.308,0,0,0-1.085.721,4.51,4.51,0,0,0-.755,1.04,6.566,6.566,0,0,0-.5,1.2,10.6,10.6,0,0,0-.3,1.288,12.632,12.632,0,0,0-.155,1.282c-.025.387-.038.79-.038,1.2a3.47,3.47,0,0,0,.946,2.547,3.3,3.3,0,0,0,2.437.94h9.234a3.3,3.3,0,0,0,2.437-.94A3.469,3.469,0,0,0,16,254.311c0-.409-.013-.811-.039-1.2ZM14.279,256a2.219,2.219,0,0,1-1.662.612H3.383A2.219,2.219,0,0,1,1.72,256a2.269,2.269,0,0,1-.6-1.686c0-.38.012-.755.036-1.115a11.393,11.393,0,0,1,.14-1.154,9.349,9.349,0,0,1,.262-1.136,5.345,5.345,0,0,1,.408-.977,3.344,3.344,0,0,1,.555-.769,2.2,2.2,0,0,1,.722-.474,2.464,2.464,0,0,1,.885-.181c.039.022.109.064.223.143.231.159.5.341.792.54a5.426,5.426,0,0,0,1.27.6,4.793,4.793,0,0,0,3.167,0,5.433,5.433,0,0,0,1.271-.6c.3-.2.56-.38.791-.539.114-.078.184-.121.223-.143a2.465,2.465,0,0,1,.885.181,2.2,2.2,0,0,1,.722.474,3.335,3.335,0,0,1,.555.769,5.327,5.327,0,0,1,.408.977,9.328,9.328,0,0,1,.262,1.136,11.489,11.489,0,0,1,.14,1.154h0c.024.359.036.734.036,1.115a2.269,2.269,0,0,1-.6,1.686Zm0,0" transform="translate(0 -237.797)" fill="var(--secondaryColor)"/>
  </g>
</svg>
